<svg width="34" height="34" viewBox="0 0 34 34" fill="none" xmlns="http://www.w3.org/2000/svg">
<circle cx="17" cy="17" r="17" fill="#1C1C1C"/>
<path d="M10.9778 17.3896L11.0498 17.3202L10.9778 17.3896L16.7341 23.3647L16.7343 23.3648C16.7687 23.4004 16.8099 23.4287 16.8556 23.4481C16.9012 23.4674 16.9502 23.4773 16.9997 23.4773C17.0492 23.4773 17.0982 23.4674 17.1439 23.4481C17.1895 23.4287 17.2307 23.4004 17.2651 23.3648L17.2652 23.3647C18.2254 22.3699 19.1844 21.3756 20.1434 20.3814C21.1024 19.3871 22.0614 18.3928 23.0215 17.398C24.4595 15.9082 24.4595 13.5144 23.0215 12.0246C21.5817 10.5328 19.2346 10.5327 17.7947 12.0245C17.7946 12.0245 17.7946 12.0246 17.7946 12.0246L17 12.8423L16.2049 12.0163L16.2049 12.0162C15.4851 11.2705 14.5379 10.9 13.5914 10.9C12.6448 10.9 11.6976 11.2705 10.9779 12.0162C9.53985 13.506 9.54158 15.8986 10.9778 17.3896ZM16.7338 13.6358L16.7343 13.6363C16.7687 13.6719 16.81 13.7002 16.8556 13.7195C16.9012 13.7389 16.9502 13.7488 16.9997 13.7488C17.0492 13.7488 17.0982 13.7389 17.1439 13.7195C17.1895 13.7002 17.2307 13.6719 17.2651 13.6363L17.2653 13.6361L18.3256 12.5338C19.4862 11.3313 21.3299 11.3313 22.4905 12.5338C23.653 13.7383 23.653 15.6844 22.4905 16.8888C21.5633 17.8495 20.637 18.8095 19.7108 19.7695L19.7091 19.7712C18.8063 20.7069 17.9035 21.6427 16.9998 22.579L11.509 16.8805C11.509 16.8805 11.509 16.8805 11.509 16.8805C10.3472 15.6745 10.3464 13.7297 11.5089 12.5253L11.5089 12.5253C12.0896 11.9237 12.8412 11.6302 13.5914 11.6302C14.3414 11.6302 15.0929 11.9236 15.6736 12.5251C15.6737 12.5252 15.6738 12.5253 15.6738 12.5253L16.7338 13.6358Z" fill="white" stroke="white" stroke-width="0.2"/>
</svg>
