<svg width="16" height="20" viewBox="0 0 16 20" fill="none" xmlns="http://www.w3.org/2000/svg">
<path d="M7.77778 0C3.49041 0 0 3.276 0 7.3C0 11.208 7.14277 19.5 7.44964 19.852C7.53061 19.944 7.64993 20 7.77778 20C7.90565 20 8.02923 19.944 8.11021 19.852C8.41278 19.5 15.5556 11.208 15.5556 7.3C15.5556 3.276 12.0694 0 7.77778 0ZM7.77778 10.4C5.95801 10.4 4.47489 9.00801 4.47489 7.3C4.47489 5.59202 5.95801 4.2 7.77778 4.2C9.59757 4.2 11.0807 5.59202 11.0807 7.3C11.0807 9.00801 9.59757 10.4 7.77778 10.4Z" fill="white"/>
</svg>
