<svg width="13" height="13" viewBox="0 0 13 13" fill="none" xmlns="http://www.w3.org/2000/svg">
<mask id="path-1-inside-1" fill="white">
<path d="M11.8076 12.5C11.6925 12.5 11.5775 12.4541 11.4895 12.3622L0.917984 1.30334C0.742182 1.11963 0.742182 0.821648 0.917984 0.63793C1.09361 0.454023 1.37863 0.454023 1.55407 0.63793L12.1256 11.6968C12.3014 11.8807 12.3014 12.1785 12.1256 12.3622C12.0378 12.4541 11.9228 12.5 11.8076 12.5Z"/>
<path d="M1.23612 12.5C1.12096 12.5 1.0058 12.4541 0.917984 12.3622C0.742182 12.1783 0.742182 11.8805 0.917984 11.6968L11.4895 0.63793C11.6653 0.454023 11.9499 0.454023 12.1256 0.63793C12.3014 0.821648 12.3014 1.11963 12.1256 1.30334L1.55407 12.3622C1.46644 12.4541 1.35128 12.5 1.23612 12.5Z"/>
</mask>
<path d="M11.8076 12.5C11.6925 12.5 11.5775 12.4541 11.4895 12.3622L0.917984 1.30334C0.742182 1.11963 0.742182 0.821648 0.917984 0.63793C1.09361 0.454023 1.37863 0.454023 1.55407 0.63793L12.1256 11.6968C12.3014 11.8807 12.3014 12.1785 12.1256 12.3622C12.0378 12.4541 11.9228 12.5 11.8076 12.5Z" fill="white"/>
<path d="M1.23612 12.5C1.12096 12.5 1.0058 12.4541 0.917984 12.3622C0.742182 12.1783 0.742182 11.8805 0.917984 11.6968L11.4895 0.63793C11.6653 0.454023 11.9499 0.454023 12.1256 0.63793C12.3014 0.821648 12.3014 1.11963 12.1256 1.30334L1.55407 12.3622C1.46644 12.4541 1.35128 12.5 1.23612 12.5Z" fill="white"/>
<path d="M11.4895 12.3622L10.7666 13.0532L10.7673 13.0539L11.4895 12.3622ZM0.917984 1.30334L1.64084 0.612345L1.64049 0.611976L0.917984 1.30334ZM0.917984 0.63793L1.64049 1.3293L1.64119 1.32856L0.917984 0.63793ZM1.55407 0.63793L0.83051 1.32819L0.831218 1.32893L1.55407 0.63793ZM12.1256 11.6968L11.4027 12.3878L12.1256 11.6968ZM12.1256 12.3622L11.4031 11.6708L11.4027 11.6712L12.1256 12.3622ZM0.917984 12.3622L0.195128 13.0532L0.917984 12.3622ZM0.917984 11.6968L1.64049 12.3882L1.64084 12.3878L0.917984 11.6968ZM11.4895 0.63793L12.2123 1.32893L12.2123 1.32893L11.4895 0.63793ZM12.1256 0.63793L11.4024 1.32856L11.4031 1.3293L12.1256 0.63793ZM12.1256 1.30334L11.4031 0.611975L11.4027 0.612345L12.1256 1.30334ZM1.55407 12.3622L0.831217 11.6712L0.83051 11.672L1.55407 12.3622ZM11.8076 11.5C11.9618 11.5 12.1087 11.563 12.2116 11.6705L10.7673 13.0539C11.0462 13.3451 11.4231 13.5 11.8076 13.5V11.5ZM12.2123 11.6712L1.64084 0.612345L0.195129 1.99434L10.7666 13.0532L12.2123 11.6712ZM1.64049 0.611976C1.83468 0.814916 1.83468 1.12636 1.64049 1.3293L0.195482 -0.0534388C-0.350317 0.516938 -0.350317 1.42434 0.195482 1.99471L1.64049 0.611976ZM1.64119 1.32856C1.42311 1.55694 1.04925 1.55748 0.830511 1.32819L2.27764 -0.0523289C1.70801 -0.649435 0.764107 -0.648889 0.194775 -0.0526993L1.64119 1.32856ZM0.831218 1.32893L11.4027 12.3878L12.8484 11.0058L2.27693 -0.0530691L0.831218 1.32893ZM11.4027 12.3878C11.2092 12.1853 11.2087 11.874 11.4031 11.6708L12.8481 13.0536C13.3941 12.483 13.3936 11.5761 12.8484 11.0058L11.4027 12.3878ZM11.4027 11.6712C11.5062 11.563 11.6536 11.5 11.8076 11.5V13.5C12.192 13.5 12.5693 13.3452 12.8484 13.0532L11.4027 11.6712ZM1.23612 11.5C1.38971 11.5 1.53705 11.5626 1.64084 11.6712L0.195128 13.0532C0.474538 13.3455 0.8522 13.5 1.23612 13.5V11.5ZM1.64084 11.6712C1.83437 11.8737 1.83487 12.185 1.64049 12.3882L0.195482 11.0054C-0.350506 11.576 -0.35001 12.4829 0.195128 13.0532L1.64084 11.6712ZM1.64084 12.3878L12.2123 1.32893L10.7666 -0.0530691L0.195129 11.0058L1.64084 12.3878ZM12.2123 1.32893C11.9945 1.55681 11.6209 1.55736 11.4024 1.32856L12.8488 -0.0526993C12.279 -0.649311 11.3361 -0.648766 10.7666 -0.0530691L12.2123 1.32893ZM11.4031 1.3293C11.2089 1.12636 11.2089 0.814916 11.4031 0.611976L12.8481 1.99471C13.3939 1.42434 13.3939 0.516938 12.8481 -0.0534388L11.4031 1.3293ZM11.4027 0.612345L0.831218 11.6712L2.27693 13.0532L12.8484 1.99434L11.4027 0.612345ZM0.83051 11.672C0.934879 11.5625 1.0827 11.5 1.23612 11.5V13.5C1.61986 13.5 1.99801 13.3456 2.27764 13.0525L0.83051 11.672Z" fill="white" mask="url(#path-1-inside-1)"/>
</svg>
