<svg width="20" height="20" viewBox="0 0 20 20" fill="none" xmlns="http://www.w3.org/2000/svg">
<path d="M0.219752 0.229883C-0.0732507 0.536081 -0.0732507 1.03271 0.219752 1.33891L8.15341 9.63832L8.49926 9.27653M0.219752 0.229883L8.49926 9.27653M0.219752 0.229883C0.512455 -0.0766278 0.987498 -0.0766278 1.2799 0.229883H0.219752ZM8.49926 9.27653L0.58118 0.993408L0.581003 0.993223C0.472999 0.880355 0.472999 0.688436 0.581003 0.575568L0.581357 0.575198C0.677205 0.474828 0.822807 0.475102 0.918119 0.575013L0.918473 0.575383L8.86771 8.89109L8.49926 9.27653ZM8.15341 10.3619L8.49926 10.7237M8.15341 10.3619L8.49926 10.7237M8.15341 10.3619L0.219752 18.6613C-0.0732507 18.9675 -0.0732507 19.4638 0.219752 19.7704C0.366104 19.9235 0.55804 20 0.749977 20C0.941913 20 1.13385 19.9235 1.2799 19.7704L8.15341 10.3619ZM8.49926 10.7237L0.58118 19.0068L0.581003 19.007C0.473094 19.1198 0.472845 19.3115 0.58118 19.4249C0.631731 19.4777 0.692416 19.5 0.749977 19.5C0.807625 19.5 0.868069 19.4777 0.918119 19.4252L0.918473 19.4249L8.86771 11.1091L8.49926 10.7237ZM18.2 19.4245L10.2511 11.1091L10.6196 10.7237L18.5376 19.0068C18.646 19.1202 18.6457 19.3119 18.5378 19.4247L18.5376 19.4249C18.4869 19.4779 18.4265 19.5 18.3691 19.5C18.3119 19.5 18.2512 19.4779 18.2 19.4245ZM9.92786 10.0001L9.55941 10.3856L9.19096 10.0001L9.55941 9.61468L9.92786 10.0001ZM10.2511 8.89109L18.2003 0.575383C18.2965 0.474767 18.4418 0.47504 18.5375 0.575198L18.5378 0.575568C18.6458 0.688436 18.6458 0.880355 18.5378 0.993223L18.5376 0.993408L10.6196 9.27653L10.2511 8.89109Z" fill="white" stroke="white"/>
</svg>
