<svg width="36" height="36" viewBox="0 0 36 36" fill="none" xmlns="http://www.w3.org/2000/svg">
<path d="M21.0908 12L14.0492 23.4362L14.8892 24L21.9308 12.5638L21.0908 12Z" fill="white"/>
<path d="M14 16.8463C13.6044 16.8463 13.2178 16.7239 12.8889 16.4944C12.56 16.265 12.3036 15.9388 12.1522 15.5573C12.0009 15.1757 11.9613 14.7559 12.0384 14.3508C12.1156 13.9458 12.3061 13.5737 12.5858 13.2817C12.8655 12.9896 13.2219 12.7908 13.6098 12.7102C13.9978 12.6296 14.3999 12.671 14.7654 12.829C15.1308 12.9871 15.4432 13.2547 15.6629 13.5981C15.8827 13.9415 16 14.3452 16 14.7582C16 15.312 15.7893 15.8431 15.4142 16.2347C15.0391 16.6263 14.5304 16.8463 14 16.8463ZM14 13.7141C13.8022 13.7141 13.6089 13.7754 13.4444 13.8901C13.28 14.0048 13.1518 14.1679 13.0761 14.3587C13.0004 14.5494 12.9806 14.7594 13.0192 14.9619C13.0578 15.1644 13.153 15.3504 13.2929 15.4965C13.4327 15.6425 13.6109 15.7419 13.8049 15.7822C13.9989 15.8225 14.2 15.8018 14.3827 15.7228C14.5654 15.6438 14.7216 15.5099 14.8315 15.3382C14.9414 15.1666 15 14.9647 15 14.7582C15 14.4813 14.8946 14.2157 14.7071 14.0199C14.5196 13.8241 14.2652 13.7141 14 13.7141Z" fill="white"/>
<path d="M22 23.1107C21.6044 23.1107 21.2178 22.9882 20.8889 22.7588C20.56 22.5293 20.3036 22.2032 20.1522 21.8216C20.0009 21.4401 19.9613 21.0202 20.0384 20.6152C20.1156 20.2101 20.3061 19.8381 20.5858 19.546C20.8655 19.254 21.2219 19.0551 21.6098 18.9746C21.9978 18.894 22.3999 18.9353 22.7654 19.0934C23.1308 19.2514 23.4432 19.5191 23.6629 19.8625C23.8827 20.2058 24 20.6096 24 21.0226C24 21.5764 23.7893 22.1075 23.4142 22.4991C23.0391 22.8907 22.5304 23.1107 22 23.1107ZM22 19.9785C21.8022 19.9785 21.6089 20.0397 21.4444 20.1545C21.28 20.2692 21.1518 20.4322 21.0761 20.623C21.0004 20.8138 20.9806 21.0237 21.0192 21.2262C21.0578 21.4288 21.153 21.6148 21.2929 21.7608C21.4327 21.9068 21.6109 22.0063 21.8049 22.0466C21.9989 22.0868 22.2 22.0662 22.3827 21.9871C22.5654 21.9081 22.7216 21.7743 22.8315 21.6026C22.9414 21.4309 23 21.2291 23 21.0226C23 20.7457 22.8946 20.4801 22.7071 20.2843C22.5196 20.0885 22.2652 19.9785 22 19.9785Z" fill="white"/>
<circle cx="18" cy="18" r="17.5" stroke="white"/>
</svg>
