<svg width="20" height="20" viewBox="0 0 20 20" fill="none" xmlns="http://www.w3.org/2000/svg">
<path d="M2.8836 19.5692C2.8836 19.1818 2.8836 18.7945 2.8836 18.4071C2.8836 17.4795 2.8836 16.552 2.8836 15.6244C2.8836 14.5032 2.8836 13.382 2.8836 12.2608C2.8836 11.288 2.8836 10.3153 2.8836 9.34469C2.8836 8.87554 2.89444 8.40208 2.8836 7.93293C2.8836 7.92648 2.8836 7.92002 2.8836 7.91356C2.8836 7.6876 2.68427 7.47239 2.45028 7.48315C2.21628 7.49391 2.01695 7.67253 2.01695 7.91356C2.01695 8.30094 2.01695 8.68831 2.01695 9.07568C2.01695 10.0032 2.01695 10.9308 2.01695 11.8583C2.01695 12.9795 2.01695 14.1008 2.01695 15.222C2.01695 16.1947 2.01695 17.1675 2.01695 18.1381C2.01695 18.6072 2.00612 19.0807 2.01695 19.5498C2.01695 19.5563 2.01695 19.5627 2.01695 19.5692C2.01695 19.7952 2.21628 20.0104 2.45028 19.9996C2.68427 19.9889 2.8836 19.8102 2.8836 19.5692Z" fill="white"/>
<path d="M2.8836 3.90855C2.8836 2.89062 2.8836 1.87269 2.8836 0.854761C2.8836 0.712724 2.8836 0.572839 2.8836 0.430802C2.8836 0.204834 2.68427 -0.0103731 2.45028 0.000387254C2.21628 0.0111476 2.01695 0.18977 2.01695 0.430802C2.01695 1.44873 2.01695 2.46666 2.01695 3.4846C2.01695 3.62663 2.01695 3.76652 2.01695 3.90855C2.01695 4.13452 2.21628 4.34973 2.45028 4.33897C2.68427 4.32821 2.8836 4.14959 2.8836 3.90855Z" fill="white"/>
<path d="M4.03192 5.90998C4.03192 5.95948 4.02975 6.01113 4.02542 6.06063C4.02325 6.08645 4.02109 6.11013 4.01892 6.1338C4.01459 6.19836 4.03842 6.02404 4.02109 6.12304C4.00375 6.21988 3.98209 6.31242 3.95175 6.40711C3.93659 6.45231 3.91275 6.4975 3.90192 6.54269C3.92575 6.43939 3.91492 6.51256 3.89975 6.54485C3.89109 6.56206 3.88242 6.57928 3.87375 6.59649C3.82825 6.68473 3.77409 6.76866 3.71992 6.85044C3.68959 6.89563 3.71342 6.90424 3.72859 6.84183C3.72642 6.85259 3.70042 6.87626 3.69392 6.88487C3.66359 6.92146 3.63109 6.95589 3.59859 6.99032C3.56609 7.02476 3.53143 7.05704 3.49676 7.08932C3.48376 7.10223 3.46859 7.11514 3.45343 7.12591C3.43826 7.13882 3.34943 7.19047 3.40793 7.16249C3.46859 7.13451 3.39493 7.1711 3.38193 7.17971C3.36676 7.19047 3.3516 7.20123 3.33426 7.21199C3.29526 7.23781 3.2541 7.26149 3.21293 7.28516C3.17177 7.30883 3.12843 7.33035 3.0851 7.34972C3.07427 7.35402 2.98977 7.382 3.05693 7.36263C3.12627 7.34111 3.0136 7.3777 3.0006 7.382C2.91827 7.40998 2.83377 7.43365 2.74711 7.45302C2.71894 7.45948 2.68861 7.46378 2.66044 7.47024C2.59978 7.481 2.66911 7.48315 2.68644 7.46808C2.66261 7.48961 2.53694 7.481 2.50661 7.481C2.41561 7.48315 2.32461 7.47669 2.23362 7.47024C2.12962 7.46163 2.33328 7.48961 2.23145 7.47024C2.21195 7.46593 2.19245 7.46378 2.17295 7.45948C2.11445 7.44872 2.05812 7.43365 2.00179 7.41859C1.96062 7.40567 1.91945 7.39276 1.87829 7.3777C1.86529 7.37339 1.81546 7.36263 1.81112 7.35187C1.82629 7.382 1.88912 7.38846 1.82196 7.35618C1.73096 7.31098 1.64429 7.26579 1.55979 7.21199C1.54463 7.20123 1.52729 7.19047 1.51213 7.17971C1.50346 7.17325 1.49696 7.16895 1.48829 7.16249C1.45146 7.13451 1.45796 7.14097 1.50779 7.17971C1.47529 7.1711 1.43413 7.11945 1.4103 7.09793C1.33663 7.03121 1.2673 6.9602 1.2023 6.88487C1.19797 6.87842 1.1698 6.85044 1.16763 6.84183C1.17847 6.8569 1.1893 6.86981 1.20013 6.88487C1.1893 6.86981 1.17847 6.85474 1.16763 6.83968C1.1438 6.80525 1.11997 6.76866 1.0983 6.73208C1.07663 6.69549 1.05497 6.65891 1.03547 6.62017C1.02247 6.59434 1.00947 6.56852 0.996469 6.54269C0.992136 6.53408 0.987803 6.52548 0.98347 6.51687C0.96397 6.47383 0.968303 6.48243 0.992136 6.54054C0.972637 6.52978 0.948804 6.42433 0.942304 6.40496C0.927137 6.35977 0.914137 6.31242 0.903304 6.26508C0.892471 6.22203 0.883805 6.17899 0.877305 6.13595C0.870805 6.09937 0.879471 6.04556 0.877305 6.14886C0.877305 6.12089 0.870805 6.0886 0.868638 6.06063C0.859972 5.95948 0.862138 5.86048 0.868638 5.75934C0.870805 5.73997 0.872971 5.7206 0.872971 5.69908C0.881638 5.60008 0.859972 5.7744 0.870805 5.70984C0.881638 5.65604 0.890305 5.60439 0.903304 5.55274C0.914137 5.50539 0.927137 5.4602 0.942304 5.41285C0.95097 5.38703 0.97047 5.28803 0.992136 5.27727C0.97697 5.28588 0.955304 5.3569 0.98347 5.30095C0.99647 5.27512 1.0073 5.2493 1.0203 5.22347C1.04197 5.18043 1.0658 5.13954 1.08963 5.09865C1.11347 5.05776 1.13947 5.01902 1.16763 4.98029C1.1763 4.96953 1.21313 4.8942 1.18497 4.95446C1.1568 5.01257 1.19363 4.9437 1.20447 4.93079C1.26513 4.85762 1.33013 4.7909 1.40163 4.72634C1.42546 4.70482 1.47746 4.64241 1.50996 4.63595C1.44713 4.65102 1.4558 4.67469 1.50129 4.64456C1.52079 4.63165 1.54029 4.61659 1.55979 4.60367C1.63996 4.55202 1.72229 4.50468 1.80896 4.46594C1.84146 4.45088 1.91512 4.44012 1.81112 4.46379C1.82846 4.45949 1.84796 4.44872 1.86529 4.44227C1.91079 4.42505 1.95629 4.40999 2.00395 4.39707C2.05162 4.38416 2.09928 4.37125 2.14695 4.36264C2.16645 4.35834 2.18595 4.35403 2.20545 4.35188C2.22495 4.34758 2.24445 4.34543 2.26395 4.34327C2.20328 4.35188 2.18812 4.35188 2.22278 4.34973C2.31811 4.34112 2.41345 4.33466 2.51094 4.33897C2.56078 4.34112 2.61061 4.34543 2.66044 4.34973C2.74711 4.35619 2.63444 4.34543 2.63444 4.34543C2.64744 4.33682 2.71894 4.36049 2.73627 4.36264C2.84677 4.38416 2.95294 4.4186 3.05693 4.45518C3.1111 4.47455 3.06127 4.44012 3.0331 4.44442C3.05477 4.44227 3.1046 4.4767 3.1241 4.48746C3.17177 4.51113 3.21727 4.53481 3.26276 4.56278C3.3126 4.59291 3.3581 4.6252 3.40576 4.65532C3.44476 4.68115 3.43176 4.65102 3.38626 4.63811C3.40793 4.64456 3.43393 4.67684 3.45126 4.69191C3.53359 4.76293 3.61159 4.83825 3.68092 4.92218C3.69392 4.93725 3.72209 4.95877 3.72642 4.97598C3.69176 4.92864 3.68309 4.92003 3.70259 4.94585C3.71126 4.95661 3.71992 4.96953 3.72642 4.98029C3.75892 5.02763 3.78926 5.07498 3.81742 5.12448C3.84125 5.16537 3.86292 5.20841 3.88459 5.2493C3.89109 5.26436 3.92359 5.31171 3.92142 5.32677C3.89759 5.27297 3.89325 5.26006 3.90625 5.29019C3.91059 5.3031 3.91709 5.31601 3.92142 5.33108C3.95825 5.43007 3.98642 5.53337 4.00809 5.63882C4.01025 5.65173 4.02975 5.7163 4.02325 5.7249C4.02109 5.70554 4.01892 5.68832 4.01675 5.66895C4.01892 5.68832 4.02109 5.70769 4.02325 5.72921C4.02975 5.78947 4.03192 5.84972 4.03192 5.90998C4.03408 6.13595 4.22908 6.35116 4.46524 6.3404C4.69924 6.32964 4.90074 6.15101 4.89857 5.90998C4.8899 4.87699 4.23342 3.97312 3.26276 3.61587C2.33111 3.27369 1.2023 3.57929 0.576143 4.34758C0.242482 4.75647 0.0474855 5.23208 0.00631952 5.75934C-0.0305132 6.23925 0.0951514 6.74068 0.344314 7.15388C0.881638 8.04484 1.93245 8.48817 2.95077 8.29018C4.07742 8.07282 4.88774 7.03552 4.8964 5.90998C4.89857 5.68401 4.69491 5.46881 4.46308 5.47957C4.22908 5.49033 4.03408 5.66895 4.03192 5.90998Z" fill="white"/>
<path d="M10.4343 19.5692C10.4343 18.6804 10.4343 17.7894 10.4343 16.9006C10.4343 16.7737 10.4343 16.6467 10.4343 16.5219C10.4343 16.2959 10.235 16.0807 10.001 16.0914C9.76699 16.1022 9.56766 16.2808 9.56766 16.5219C9.56766 17.4107 9.56766 18.3016 9.56766 19.1904C9.56766 19.3174 9.56766 19.4444 9.56766 19.5692C9.56766 19.7952 9.76699 20.0104 10.001 19.9996C10.235 19.9889 10.4343 19.8102 10.4343 19.5692Z" fill="white"/>
<path d="M10.4343 12.5169C10.4343 12.1144 10.4343 11.712 10.4343 11.3095C10.4343 10.3497 10.4343 9.38989 10.4343 8.43221C10.4343 7.26579 10.4343 6.09721 10.4343 4.93079C10.4343 3.92792 10.4343 2.92506 10.4343 1.92219C10.4343 1.43152 10.4451 0.940844 10.4343 0.452323C10.4343 0.445867 10.4343 0.43941 10.4343 0.432954C10.4343 0.206986 10.235 -0.00822107 10.001 0.0025393C9.76699 0.0132997 9.56766 0.191922 9.56766 0.432954C9.56766 0.835392 9.56766 1.23783 9.56766 1.64027C9.56766 2.60009 9.56766 3.55992 9.56766 4.51759C9.56766 5.68401 9.56766 6.85259 9.56766 8.01902C9.56766 9.02188 9.56766 10.0247 9.56766 11.0276C9.56766 11.5183 9.55683 12.009 9.56766 12.4975C9.56766 12.5039 9.56766 12.5104 9.56766 12.5169C9.56766 12.7428 9.76699 12.958 10.001 12.9473C10.235 12.9365 10.4343 12.7579 10.4343 12.5169Z" fill="white"/>
<path d="M11.5826 14.5183C11.5826 14.5678 11.5805 14.6194 11.5761 14.6689C11.574 14.6947 11.5718 14.7184 11.5696 14.7421C11.5653 14.8067 11.5891 14.6323 11.5718 14.7313C11.5545 14.8282 11.5328 14.9207 11.5025 15.0154C11.4873 15.0606 11.4635 15.1058 11.4526 15.151C11.4765 15.0477 11.4656 15.1209 11.4505 15.1531C11.4418 15.1704 11.4331 15.1876 11.4245 15.2048C11.379 15.293 11.3248 15.377 11.2706 15.4587C11.2403 15.5039 11.2641 15.5125 11.2793 15.4501C11.2771 15.4609 11.2511 15.4846 11.2446 15.4932C11.2143 15.5298 11.1818 15.5642 11.1493 15.5986C11.1168 15.6331 11.0821 15.6653 11.0475 15.6976C11.0345 15.7105 11.0193 15.7234 11.0041 15.7342C10.989 15.7471 10.9001 15.7988 10.9586 15.7708C11.0193 15.7428 10.9456 15.7794 10.9326 15.788C10.9175 15.7988 10.9023 15.8095 10.885 15.8203C10.846 15.8461 10.8048 15.8698 10.7636 15.8935C10.7225 15.9171 10.6791 15.9386 10.6358 15.958C10.625 15.9623 10.5405 15.9903 10.6076 15.9709C10.677 15.9494 10.5643 15.986 10.5513 15.9903C10.469 16.0183 10.3845 16.0419 10.2978 16.0613C10.2696 16.0678 10.2393 16.0721 10.2111 16.0785C10.1505 16.0893 10.2198 16.0914 10.2371 16.0764C10.2133 16.0979 10.0876 16.0893 10.0573 16.0893C9.96632 16.0914 9.87532 16.085 9.78432 16.0785C9.68032 16.0699 9.88399 16.0979 9.78216 16.0785C9.76266 16.0742 9.74316 16.0721 9.72366 16.0678C9.66516 16.057 9.60882 16.0419 9.55249 16.0269C9.51133 16.014 9.47016 16.0011 9.42899 15.986C9.41599 15.9817 9.36616 15.9709 9.36183 15.9602C9.377 15.9903 9.43983 15.9968 9.37266 15.9645C9.28166 15.9193 9.195 15.8741 9.1105 15.8203C9.09533 15.8095 9.078 15.7988 9.06283 15.788C9.05417 15.7815 9.04767 15.7772 9.039 15.7708C9.00217 15.7428 9.00867 15.7493 9.0585 15.788C9.026 15.7794 8.98483 15.7277 8.961 15.7062C8.88734 15.6395 8.818 15.5685 8.75301 15.4932C8.74867 15.4867 8.72051 15.4587 8.71834 15.4501C8.72917 15.4652 8.74001 15.4781 8.75084 15.4932C8.74001 15.4781 8.72917 15.463 8.71834 15.448C8.69451 15.4135 8.67067 15.377 8.64901 15.3404C8.62734 15.3038 8.60567 15.2672 8.58617 15.2285C8.57318 15.2026 8.56017 15.1768 8.54718 15.151C8.54284 15.1424 8.53851 15.1338 8.53418 15.1252C8.51468 15.0821 8.51901 15.0907 8.54284 15.1488C8.52334 15.1381 8.49951 15.0326 8.49301 15.0133C8.47784 14.9681 8.46484 14.9207 8.45401 14.8734C8.44318 14.8303 8.43451 14.7873 8.42801 14.7442C8.42151 14.7077 8.43018 14.6539 8.42801 14.7572C8.42801 14.7292 8.42151 14.6969 8.41934 14.6689C8.41068 14.5678 8.41284 14.4688 8.41934 14.3676C8.42151 14.3483 8.42368 14.3289 8.42368 14.3074C8.43234 14.2084 8.41068 14.3827 8.42151 14.3181C8.43234 14.2643 8.44101 14.2127 8.45401 14.161C8.46484 14.1137 8.47784 14.0685 8.49301 14.0212C8.50168 13.9953 8.52118 13.8963 8.54284 13.8856C8.52768 13.8942 8.50601 13.9652 8.53418 13.9092C8.54718 13.8834 8.55801 13.8576 8.57101 13.8318C8.59268 13.7887 8.61651 13.7478 8.64034 13.7069C8.66417 13.6661 8.69017 13.6273 8.71834 13.5886C8.72701 13.5778 8.76384 13.5025 8.73567 13.5628C8.70751 13.6209 8.74434 13.552 8.75517 13.5391C8.81584 13.4659 8.88084 13.3992 8.95234 13.3346C8.97617 13.3131 9.02817 13.2507 9.06067 13.2443C8.99784 13.2593 9.0065 13.283 9.052 13.2529C9.0715 13.2399 9.091 13.2249 9.1105 13.212C9.19066 13.1603 9.273 13.113 9.35966 13.0742C9.39216 13.0592 9.46583 13.0484 9.36183 13.0721C9.37916 13.0678 9.39866 13.057 9.41599 13.0506C9.46149 13.0333 9.50699 13.0183 9.55466 13.0054C9.60232 12.9925 9.64999 12.9795 9.69766 12.9709C9.71716 12.9666 9.73666 12.9623 9.75616 12.9602C9.77565 12.9559 9.79515 12.9537 9.81465 12.9516C9.75399 12.9602 9.73882 12.9602 9.77349 12.958C9.86882 12.9494 9.96415 12.943 10.0616 12.9473C10.1115 12.9494 10.1613 12.9537 10.2111 12.958C10.2978 12.9645 10.1851 12.9537 10.1851 12.9537C10.1981 12.9451 10.2696 12.9688 10.287 12.9709C10.3975 12.9925 10.5036 13.0269 10.6076 13.0635C10.6618 13.0828 10.612 13.0484 10.5838 13.0527C10.6055 13.0506 10.6553 13.085 10.6748 13.0958C10.7225 13.1194 10.768 13.1431 10.8135 13.1711C10.8633 13.2012 10.9088 13.2335 10.9565 13.2636C10.9955 13.2894 10.9825 13.2593 10.937 13.2464C10.9586 13.2529 10.9846 13.2851 11.002 13.3002C11.0843 13.3712 11.1623 13.4465 11.2316 13.5305C11.2446 13.5455 11.2728 13.5671 11.2771 13.5843C11.2425 13.5369 11.2338 13.5283 11.2533 13.5541C11.262 13.5649 11.2706 13.5778 11.2771 13.5886C11.3096 13.6359 11.34 13.6833 11.3681 13.7328C11.392 13.7737 11.4136 13.8167 11.4353 13.8576C11.4418 13.8727 11.4743 13.92 11.4721 13.9351C11.4483 13.8813 11.444 13.8684 11.457 13.8985C11.4613 13.9114 11.4678 13.9243 11.4721 13.9394C11.509 14.0384 11.5371 14.1417 11.5588 14.2471C11.561 14.26 11.5805 14.3246 11.574 14.3332C11.5718 14.3138 11.5696 14.2966 11.5675 14.2772C11.5696 14.2966 11.5718 14.316 11.574 14.3375C11.5805 14.3978 11.5826 14.458 11.5826 14.5183C11.5848 14.7442 11.7798 14.9595 12.016 14.9487C12.2499 14.9379 12.4514 14.7593 12.4493 14.5183C12.4406 13.4853 11.7841 12.5814 10.8135 12.2242C9.88182 11.882 8.75301 12.1876 8.12685 12.9559C7.79319 13.3648 7.59819 13.8404 7.55703 14.3676C7.52019 14.8475 7.64586 15.349 7.89502 15.7622C8.43234 16.6531 9.48316 17.0965 10.5015 16.8985C11.6281 16.6811 12.4384 15.6438 12.4471 14.5183C12.4493 14.2923 12.2456 14.0771 12.0138 14.0879C11.7798 14.0986 11.5848 14.2772 11.5826 14.5183Z" fill="white"/>
<path d="M17.985 19.5692C17.985 19.3196 17.985 19.0678 17.985 18.8181C17.985 18.2155 17.985 17.6151 17.985 17.0125C17.985 16.2851 17.985 15.5556 17.985 14.8282C17.985 14.1976 17.985 13.5671 17.985 12.9387C17.985 12.6309 17.9937 12.3232 17.985 12.0176C17.985 12.0133 17.985 12.009 17.985 12.0047C17.985 11.7787 17.7857 11.5635 17.5517 11.5742C17.3177 11.585 17.1184 11.7636 17.1184 12.0047C17.1184 12.2543 17.1184 12.5061 17.1184 12.7557C17.1184 13.3583 17.1184 13.9587 17.1184 14.5613C17.1184 15.2887 17.1184 16.0183 17.1184 16.7457C17.1184 17.3762 17.1184 18.0068 17.1184 18.6352C17.1184 18.9429 17.1097 19.2507 17.1184 19.5563C17.1184 19.5606 17.1184 19.5649 17.1184 19.5692C17.1184 19.7952 17.3177 20.0104 17.5517 19.9996C17.7857 19.9889 17.985 19.8102 17.985 19.5692Z" fill="white"/>
<path d="M17.985 7.9975C17.985 7.74785 17.985 7.49606 17.985 7.24642C17.985 6.64384 17.985 6.04341 17.985 5.44083C17.985 4.71343 17.985 3.98388 17.985 3.25648C17.985 2.62592 17.985 1.99536 17.985 1.36695C17.985 1.05921 17.9937 0.751461 17.985 0.445867C17.985 0.441562 17.985 0.437258 17.985 0.432954C17.985 0.206986 17.7857 -0.00822107 17.5517 0.0025393C17.3177 0.0132997 17.1184 0.191922 17.1184 0.432954C17.1184 0.682595 17.1184 0.934387 17.1184 1.18403C17.1184 1.78661 17.1184 2.38704 17.1184 2.98962C17.1184 3.71702 17.1184 4.44657 17.1184 5.17397C17.1184 5.80453 17.1184 6.43509 17.1184 7.0635C17.1184 7.37124 17.1097 7.67899 17.1184 7.98458C17.1184 7.98889 17.1184 7.99319 17.1184 7.9975C17.1184 8.22346 17.3177 8.43867 17.5517 8.42791C17.7857 8.41715 17.985 8.23853 17.985 7.9975Z" fill="white"/>
<path d="M19.1333 9.99892C19.1333 10.0484 19.1312 10.1001 19.1268 10.1496C19.1247 10.1754 19.1225 10.1991 19.1203 10.2227C19.116 10.2873 19.1398 10.113 19.1225 10.212C19.1052 10.3088 19.0835 10.4014 19.0532 10.4961C19.038 10.5412 19.0142 10.5864 19.0033 10.6316C19.0272 10.5283 19.0163 10.6015 19.0012 10.6338C18.9925 10.651 18.9838 10.6682 18.9752 10.6854C18.9297 10.7737 18.8755 10.8576 18.8213 10.9394C18.791 10.9846 18.8148 10.9932 18.83 10.9308C18.8278 10.9415 18.8018 10.9652 18.7953 10.9738C18.765 11.0104 18.7325 11.0448 18.7 11.0793C18.6675 11.1137 18.6328 11.146 18.5982 11.1783C18.5852 11.1912 18.57 11.2041 18.5548 11.2148C18.5397 11.2278 18.4508 11.2794 18.5093 11.2514C18.57 11.2235 18.4963 11.26 18.4833 11.2686C18.4682 11.2794 18.453 11.2902 18.4357 11.3009C18.3967 11.3268 18.3555 11.3504 18.3143 11.3741C18.2732 11.3978 18.2298 11.4193 18.1865 11.4387C18.1757 11.443 18.0912 11.4709 18.1583 11.4516C18.2277 11.4301 18.115 11.4666 18.102 11.4709C18.0197 11.4989 17.9352 11.5226 17.8485 11.542C17.8204 11.5484 17.79 11.5527 17.7619 11.5592C17.7012 11.5699 17.7705 11.5721 17.7879 11.557C17.764 11.5785 17.6384 11.5699 17.608 11.5699C17.517 11.5721 17.426 11.5656 17.335 11.5592C17.231 11.5506 17.4347 11.5785 17.3329 11.5592C17.3134 11.5549 17.2939 11.5527 17.2744 11.5484C17.2159 11.5377 17.1595 11.5226 17.1032 11.5075C17.062 11.4946 17.0209 11.4817 16.9797 11.4666C16.9667 11.4623 16.9169 11.4516 16.9125 11.4408C16.9277 11.4709 16.9905 11.4774 16.9234 11.4451C16.8324 11.3999 16.7457 11.3547 16.6612 11.3009C16.646 11.2902 16.6287 11.2794 16.6135 11.2686C16.6049 11.2622 16.5984 11.2579 16.5897 11.2514C16.5529 11.2235 16.5594 11.2299 16.6092 11.2686C16.5767 11.26 16.5355 11.2084 16.5117 11.1869C16.438 11.1202 16.3687 11.0491 16.3037 10.9738C16.2994 10.9674 16.2712 10.9394 16.269 10.9308C16.2799 10.9458 16.2907 10.9587 16.3015 10.9738C16.2907 10.9587 16.2799 10.9437 16.269 10.9286C16.2452 10.8942 16.2214 10.8576 16.1997 10.821C16.178 10.7844 16.1564 10.7478 16.1369 10.7091C16.1239 10.6833 16.1109 10.6575 16.0979 10.6316C16.0935 10.623 16.0892 10.6144 16.0849 10.6058C16.0654 10.5628 16.0697 10.5714 16.0935 10.6295C16.074 10.6187 16.0502 10.5133 16.0437 10.4939C16.0285 10.4487 16.0155 10.4014 16.0047 10.354C15.9939 10.311 15.9852 10.2679 15.9787 10.2249C15.9722 10.1883 15.9809 10.1345 15.9787 10.2378C15.9787 10.2098 15.9722 10.1775 15.9701 10.1496C15.9614 10.0484 15.9636 9.94943 15.9701 9.84828C15.9722 9.82891 15.9744 9.80954 15.9744 9.78802C15.9831 9.68902 15.9614 9.86334 15.9722 9.79878C15.983 9.74498 15.9917 9.69333 16.0047 9.64168C16.0155 9.59433 16.0285 9.54914 16.0437 9.50179C16.0524 9.47597 16.0719 9.37697 16.0935 9.36621C16.0784 9.37482 16.0567 9.44584 16.0849 9.38989C16.0979 9.36406 16.1087 9.33824 16.1217 9.31241C16.1434 9.26937 16.1672 9.22848 16.191 9.18759C16.2149 9.1467 16.2409 9.10796 16.269 9.06923C16.2777 9.05847 16.3145 8.98314 16.2864 9.0434C16.2582 9.10151 16.295 9.03264 16.3059 9.01973C16.3665 8.94656 16.4315 8.87984 16.503 8.81528C16.5269 8.79376 16.5789 8.73135 16.6114 8.7249C16.5485 8.73996 16.5572 8.76363 16.6027 8.7335C16.6222 8.72059 16.6417 8.70553 16.6612 8.69261C16.7414 8.64096 16.8237 8.59362 16.9104 8.55488C16.9429 8.53982 17.0165 8.52906 16.9125 8.55273C16.9299 8.54842 16.9494 8.53766 16.9667 8.53121C17.0122 8.51399 17.0577 8.49893 17.1054 8.48602C17.153 8.4731 17.2007 8.46019 17.2484 8.45158C17.2679 8.44728 17.2874 8.44297 17.3069 8.44082C17.3264 8.43652 17.3459 8.43437 17.3654 8.43221C17.3047 8.44082 17.2895 8.44082 17.3242 8.43867C17.4195 8.43006 17.5149 8.4236 17.6124 8.42791C17.6622 8.43006 17.712 8.43437 17.7619 8.43867C17.8485 8.44513 17.7359 8.43437 17.7359 8.43437C17.7489 8.42576 17.8204 8.44943 17.8377 8.45158C17.9482 8.4731 18.0543 8.50754 18.1583 8.54412C18.2125 8.56349 18.1627 8.52906 18.1345 8.53336C18.1562 8.53121 18.206 8.56564 18.2255 8.5764C18.2732 8.60007 18.3187 8.62375 18.3642 8.65172C18.414 8.68185 18.4595 8.71414 18.5072 8.74426C18.5462 8.77009 18.5332 8.73996 18.4877 8.72705C18.5093 8.7335 18.5353 8.76579 18.5527 8.78085C18.635 8.85187 18.713 8.92719 18.7823 9.01112C18.7953 9.02619 18.8235 9.04771 18.8278 9.06492C18.7932 9.01758 18.7845 9.00897 18.804 9.03479C18.8127 9.04556 18.8213 9.05847 18.8278 9.06923C18.8603 9.11657 18.8907 9.16392 18.9188 9.21342C18.9427 9.25431 18.9643 9.29735 18.986 9.33824C18.9925 9.3533 19.025 9.40065 19.0228 9.41571C18.999 9.36191 18.9947 9.349 19.0077 9.37913C19.012 9.39204 19.0185 9.40495 19.0228 9.42002C19.0597 9.51901 19.0878 9.62231 19.1095 9.72776C19.1117 9.74067 19.1312 9.80524 19.1247 9.81384C19.1225 9.79448 19.1203 9.77726 19.1182 9.75789C19.1203 9.77726 19.1225 9.79663 19.1247 9.81815C19.1312 9.87841 19.1333 9.93867 19.1333 9.99892C19.1355 10.2249 19.3305 10.4401 19.5667 10.4293C19.8007 10.4186 20.0021 10.24 20 9.99892C19.9913 8.96593 19.3348 8.06206 18.3642 7.70481C17.4325 7.36263 16.3037 7.66823 15.6776 8.43652C15.3439 8.84541 15.1489 9.32102 15.1077 9.84828C15.0709 10.3282 15.1966 10.8296 15.4457 11.2428C15.9831 12.1338 17.0339 12.5771 18.0522 12.3791C19.1788 12.1618 19.9891 11.1245 19.9978 9.99892C20 9.77296 19.7963 9.55775 19.5645 9.56851C19.3305 9.57927 19.1355 9.75789 19.1333 9.99892Z" fill="white"/>
</svg>
