<svg width="40" height="40" viewBox="0 0 40 40" fill="none" xmlns="http://www.w3.org/2000/svg">
<rect width="40" height="40" fill="#030303"/>
<path fill-rule="evenodd" clip-rule="evenodd" d="M23.4286 28.2266H16.5714C15.359 28.2266 14.1962 27.745 13.3389 26.8878C12.4816 26.0306 12 24.868 12 23.6557V16.5709C12 15.3586 12.4816 14.196 13.3389 13.3388C14.1962 12.4816 15.359 12 16.5714 12H23.4286C24.641 12 25.8038 12.4816 26.6611 13.3388C27.5184 14.196 28 15.3586 28 16.5709V23.6557C28 24.256 27.8818 24.8504 27.652 25.4049C27.4223 25.9595 27.0856 26.4634 26.6611 26.8878C26.2366 27.3123 25.7326 27.6489 25.178 27.8787C24.6234 28.1084 24.0289 28.2266 23.4286 28.2266ZM26.5143 16.2281C26.5143 15.4704 26.2133 14.7438 25.6774 14.208C25.1416 13.6722 24.4149 13.3713 23.6571 13.3713H16.2286C15.4708 13.3713 14.7441 13.6722 14.2083 14.208C13.6725 14.7438 13.3714 15.4704 13.3714 16.2281V23.6557C13.3714 24.4134 13.6725 25.14 14.2083 25.6758C14.7441 26.2115 15.4708 26.5125 16.2286 26.5125H23.6571C24.4149 26.5125 25.1416 26.2115 25.6774 25.6758C26.2133 25.14 26.5143 24.4134 26.5143 23.6557V16.2281ZM24.2286 16.6851C24.0251 16.6851 23.8263 16.6248 23.6571 16.5118C23.488 16.3988 23.3561 16.2382 23.2783 16.0503C23.2004 15.8623 23.1801 15.6556 23.2198 15.4561C23.2595 15.2566 23.3574 15.0733 23.5013 14.9295C23.6451 14.7856 23.8284 14.6877 24.0279 14.648C24.2274 14.6083 24.4342 14.6287 24.6222 14.7065C24.8101 14.7844 24.9708 14.9162 25.0838 15.0853C25.1968 15.2544 25.2571 15.4533 25.2571 15.6567C25.2571 15.9295 25.1488 16.191 24.9559 16.3839C24.763 16.5768 24.5014 16.6851 24.2286 16.6851ZM19.9429 24.2271C19.1178 24.2271 18.3113 23.9825 17.6253 23.5242C16.9393 23.0658 16.4047 22.4144 16.089 21.6523C15.7732 20.8902 15.6906 20.0515 15.8516 19.2425C16.0125 18.4334 16.4098 17.6902 16.9932 17.1069C17.5766 16.5236 18.3199 16.1263 19.129 15.9654C19.9382 15.8044 20.777 15.887 21.5392 16.2027C22.3014 16.5184 22.9529 17.053 23.4113 17.7389C23.8696 18.4248 24.1143 19.2312 24.1143 20.0562C24.1143 21.1624 23.6748 22.2232 22.8925 23.0054C22.1102 23.7876 21.0492 24.2271 19.9429 24.2271ZM19.9429 17.3708C19.4117 17.3708 18.8924 17.5283 18.4508 17.8233C18.0091 18.1184 17.6649 18.5378 17.4616 19.0285C17.2583 19.5192 17.2051 20.0591 17.3087 20.5801C17.4124 21.101 17.6682 21.5795 18.0438 21.955C18.4194 22.3306 18.8979 22.5863 19.4189 22.6899C19.9399 22.7936 20.4799 22.7404 20.9706 22.5371C21.4614 22.3339 21.8808 21.9897 22.1759 21.5481C22.4711 21.1065 22.6286 20.5873 22.6286 20.0562C22.6286 19.344 22.3456 18.6609 21.842 18.1573C21.3383 17.6537 20.6552 17.3708 19.9429 17.3708Z" fill="white"/>
</svg>
