<svg width="41" height="40" viewBox="0 0 41 40" fill="none" xmlns="http://www.w3.org/2000/svg">
<rect x="0.333344" width="40" height="40" fill="#030303"/>
<path fill-rule="evenodd" clip-rule="evenodd" d="M23.7618 28.2266H16.9046C15.6922 28.2266 14.5294 27.745 13.6721 26.8878C12.8148 26.0306 12.3332 24.868 12.3332 23.6557V16.5709C12.3332 15.3586 12.8148 14.196 13.6721 13.3388C14.5294 12.4816 15.6922 12 16.9046 12H23.7618C24.9742 12 26.1369 12.4816 26.9943 13.3388C27.8516 14.196 28.3332 15.3586 28.3332 16.5709V23.6557C28.3332 24.256 28.2149 24.8504 27.9852 25.4049C27.7555 25.9595 27.4188 26.4634 26.9943 26.8878C26.5698 27.3123 26.0658 27.6489 25.5112 27.8787C24.9565 28.1084 24.3621 28.2266 23.7618 28.2266ZM26.8475 16.2281C26.8475 15.4704 26.5465 14.7438 26.0106 14.208C25.4748 13.6722 24.7481 13.3713 23.9903 13.3713H16.5618C15.804 13.3713 15.0773 13.6722 14.5415 14.208C14.0056 14.7438 13.7046 15.4704 13.7046 16.2281V23.6557C13.7046 24.4134 14.0056 25.14 14.5415 25.6758C15.0773 26.2115 15.804 26.5125 16.5618 26.5125H23.9903C24.7481 26.5125 25.4748 26.2115 26.0106 25.6758C26.5465 25.14 26.8475 24.4134 26.8475 23.6557V16.2281ZM24.5618 16.6851C24.3583 16.6851 24.1595 16.6248 23.9903 16.5118C23.8212 16.3988 23.6893 16.2382 23.6115 16.0503C23.5336 15.8623 23.5133 15.6556 23.553 15.4561C23.5926 15.2566 23.6906 15.0733 23.8344 14.9295C23.9783 14.7856 24.1616 14.6877 24.3611 14.648C24.5606 14.6083 24.7674 14.6287 24.9554 14.7065C25.1433 14.7844 25.304 14.9162 25.417 15.0853C25.53 15.2544 25.5903 15.4533 25.5903 15.6567C25.5903 15.9295 25.482 16.191 25.2891 16.3839C25.0962 16.5768 24.8346 16.6851 24.5618 16.6851ZM20.276 24.2271C19.451 24.2271 18.6445 23.9825 17.9585 23.5242C17.2725 23.0658 16.7379 22.4144 16.4222 21.6523C16.1064 20.8902 16.0238 20.0515 16.1848 19.2425C16.3457 18.4334 16.743 17.6902 17.3264 17.1069C17.9098 16.5236 18.6531 16.1263 19.4622 15.9654C20.2714 15.8044 21.1102 15.887 21.8724 16.2027C22.6346 16.5184 23.2861 17.053 23.7445 17.7389C24.2028 18.4248 24.4475 19.2312 24.4475 20.0562C24.4475 21.1624 24.008 22.2232 23.2257 23.0054C22.4434 23.7876 21.3824 24.2271 20.276 24.2271ZM20.276 17.3708C19.7449 17.3708 19.2256 17.5283 18.7839 17.8233C18.3423 18.1184 17.998 18.5378 17.7948 19.0285C17.5915 19.5192 17.5383 20.0591 17.6419 20.5801C17.7456 21.101 18.0014 21.5795 18.377 21.955C18.7526 22.3306 19.2311 22.5863 19.7521 22.6899C20.2731 22.7936 20.8131 22.7404 21.3038 22.5371C21.7946 22.3339 22.214 21.9897 22.5091 21.5481C22.8042 21.1065 22.9618 20.5873 22.9618 20.0562C22.9618 19.344 22.6788 18.6609 22.1751 18.1573C21.6715 17.6537 20.9883 17.3708 20.276 17.3708Z" fill="white"/>
</svg>
