<svg width="20" height="18" viewBox="0 0 20 18" fill="none" xmlns="http://www.w3.org/2000/svg">
<path d="M9.6789 16.8778L9.67875 16.8776L2.27778 9.19532L2.34979 9.12594L2.27778 9.19532C0.441826 7.28947 0.439634 4.23081 2.27784 2.32633M9.6789 16.8778L2.27784 2.32633M9.6789 16.8778C9.72048 16.9207 9.77031 16.955 9.82545 16.9784C9.8806 17.0017 9.93983 17.0137 9.99963 17.0137C10.0594 17.0137 10.1187 17.0017 10.1738 16.9784C10.2289 16.955 10.2788 16.9207 10.3204 16.8778L10.3204 16.8777C11.5528 15.6009 12.7836 14.3247 14.0145 13.0486L14.0209 13.0419L14.0225 13.0403C15.255 11.7624 16.4875 10.4846 17.7214 9.20619C19.5595 7.30178 19.5595 4.24159 17.7214 2.33717L17.6495 2.40662L17.7214 2.33717C15.8814 0.430794 12.8823 0.430729 11.0422 2.33709C11.0422 2.33711 11.0422 2.33714 11.0422 2.33717L9.99995 3.40971L8.9572 2.32643L8.95711 2.32633C8.03729 1.37336 6.82692 0.9 5.61748 0.9C4.408 0.9 3.19763 1.37336 2.27784 2.32633M9.6789 16.8778L2.27784 2.32633M9.67843 4.36917L9.6789 4.36965C9.7205 4.41265 9.77034 4.44687 9.82545 4.47023C9.88057 4.4936 9.9398 4.50562 9.99963 4.50562C10.0595 4.50562 10.1187 4.4936 10.1738 4.47023C10.2289 4.44687 10.2788 4.41265 10.3204 4.36965L10.3206 4.36944L11.6838 2.95215C13.1873 1.39442 15.5763 1.39445 17.0798 2.95215C18.5852 4.51184 18.5852 7.03153 17.0798 8.59121C15.887 9.82707 14.6953 11.0621 13.5037 12.2971C12.3361 13.5073 11.1684 14.7175 9.99967 15.9284L2.91954 8.58048C2.91954 8.58048 2.91953 8.58047 2.91953 8.58047C1.41518 7.01888 1.41413 4.50091 2.91947 2.94131L2.91947 2.94131C3.67155 2.16209 4.6454 1.78166 5.61747 1.78169C6.58942 1.78169 7.56315 2.16202 8.31526 2.94109C8.31534 2.94116 8.31541 2.94124 8.31548 2.94131L9.67843 4.36917Z" fill="white" stroke="white" stroke-width="0.2"/>
</svg>
