<svg width="20" height="20" viewBox="0 0 20 20" fill="none" xmlns="http://www.w3.org/2000/svg">
<rect y="2.40002" width="2.4" height="2.4" transform="rotate(-90 0 2.40002)" fill="white"/>
<rect y="11.2" width="2.4" height="2.4" transform="rotate(-90 0 11.2)" fill="white"/>
<rect y="20" width="2.4" height="2.4" transform="rotate(-90 0 20)" fill="white"/>
<rect x="8.8" y="2.40002" width="2.4" height="2.4" transform="rotate(-90 8.8 2.40002)" fill="white"/>
<rect x="8.8" y="11.2" width="2.4" height="2.4" transform="rotate(-90 8.8 11.2)" fill="white"/>
<rect x="8.8" y="20" width="2.4" height="2.4" transform="rotate(-90 8.8 20)" fill="white"/>
<rect x="17.6" y="2.40002" width="2.4" height="2.4" transform="rotate(-90 17.6 2.40002)" fill="white"/>
<rect x="17.6" y="11.2" width="2.4" height="2.4" transform="rotate(-90 17.6 11.2)" fill="white"/>
<rect x="17.6" y="20" width="2.4" height="2.4" transform="rotate(-90 17.6 20)" fill="white"/>
</svg>
