<svg width="20" height="18" viewBox="0 0 20 18" fill="none" xmlns="http://www.w3.org/2000/svg">
<path d="M10.0487 18L4.2516 6.62638C4.15486 6.43289 4.23225 6.2007 4.42188 6.10395C4.6115 6.0072 4.84757 6.0846 4.94431 6.27422L10.753 17.6749C11.1787 16.7423 13.1175 11.9707 10.428 6.71152C7.49457 0.9686 1.79809 0.0398254 1.55816 0.00499633C1.39175 -0.0220929 1.22922 0.0630446 1.15182 0.210101C1.04346 0.426815 -1.53776 5.58925 1.39949 11.3322C4.0465 16.5101 8.93804 17.7755 10.0487 18Z" fill="white"/>
<path d="M18.5625 5.26031C18.3922 5.26418 14.7313 5.38802 11.9875 8.47619C12.6028 10.4189 12.688 12.2339 12.5448 13.7586L13.4155 12.4738C13.5355 12.2996 13.7754 12.2532 13.9534 12.3732C14.1314 12.4931 14.1779 12.7331 14.0579 12.9072L12.2584 15.5697C12.0107 16.6571 11.6895 17.4698 11.4999 17.8955C13.0285 17.5975 15.7413 16.6765 17.6724 13.8631C20.4394 9.82679 18.9998 5.68987 18.934 5.51572C18.8798 5.36093 18.7289 5.26418 18.5625 5.26031Z" fill="white"/>
</svg>
