<svg width="36" height="36" viewBox="0 0 36 36" fill="none" xmlns="http://www.w3.org/2000/svg">
<path d="M18.3741 17.638V15.8208C18.3741 15.7214 18.3346 15.6261 18.2643 15.5559C18.1941 15.4856 18.0988 15.4462 17.9995 15.4462C17.9001 15.4462 17.8048 15.4856 17.7346 15.5559C17.6643 15.6261 17.6249 15.7214 17.6249 15.8208V17.638H15.7771C15.6778 17.638 15.5825 17.6775 15.5122 17.7477C15.442 17.818 15.4025 17.9133 15.4025 18.0126C15.4025 18.112 15.442 18.2073 15.5122 18.2775C15.5825 18.3478 15.6778 18.3872 15.7771 18.3872H17.6249V20.2643C17.6249 20.3637 17.6643 20.459 17.7346 20.5292C17.8048 20.5995 17.9001 20.6389 17.9995 20.6389C18.0988 20.6389 18.1941 20.5995 18.2643 20.5292C18.3346 20.459 18.3741 20.3637 18.3741 20.2643V18.3872H20.2218C20.271 18.3872 20.3197 18.3775 20.3651 18.3587C20.4106 18.3399 20.4519 18.3123 20.4867 18.2775C20.5215 18.2427 20.549 18.2014 20.5679 18.156C20.5867 18.1105 20.5964 18.0618 20.5964 18.0126C20.5964 17.9634 20.5867 17.9147 20.5679 17.8693C20.549 17.8238 20.5215 17.7825 20.4867 17.7478C20.4519 17.713 20.4106 17.6854 20.3651 17.6665C20.3197 17.6477 20.271 17.638 20.2218 17.638H18.3741ZM23.7254 11.9H12.2746C12.1752 11.9 12.08 11.9395 12.0097 12.0097C11.9395 12.08 11.9 12.1752 11.9 12.2746V23.7254C11.9 23.8248 11.9395 23.92 12.0097 23.9903C12.08 24.0605 12.1752 24.1 12.2746 24.1H23.7254C23.8248 24.1 23.92 24.0605 23.9903 23.9903C24.0605 23.92 24.1 23.8248 24.1 23.7254V12.2746C24.1 12.1752 24.0605 12.08 23.9903 12.0097L23.9903 12.0097C23.92 11.9395 23.8248 11.9 23.7254 11.9ZM23.3508 23.3508H12.6492V12.6492H23.3508V23.3508Z" fill="white" stroke="white" stroke-width="0.2"/>
<circle cx="18" cy="18" r="17.5" stroke="white"/>
</svg>
