<svg width="28" height="28" viewBox="0 0 28 28" fill="none" xmlns="http://www.w3.org/2000/svg">
<circle cx="14" cy="14" r="14" fill="#343434"/>
<path d="M18.3117 11.0344L16.9539 9.67657C16.745 9.46767 16.372 9.46767 16.1631 9.67657L9.85152 16.003C9.80676 16.0478 9.77692 16.1075 9.762 16.1821L9.52326 18.1367C9.50834 18.2262 9.53818 18.3158 9.61279 18.3904C9.67247 18.4501 9.74707 18.4799 9.82168 18.4799C9.8366 18.4799 9.85152 18.4799 9.85152 18.4799L11.8062 18.2412C11.8658 18.2262 11.9404 18.1964 11.9852 18.1516L18.3117 11.8252C18.4161 11.7207 18.4758 11.5864 18.4758 11.4372C18.4758 11.288 18.4161 11.1388 18.3117 11.0344ZM11.642 17.6592L10.1649 17.8383L10.3439 16.3611L15.7154 10.9896L17.0136 12.2877L11.642 17.6592ZM17.4313 11.855L16.1332 10.5718L16.5659 10.1391L17.864 11.4372L17.4313 11.855Z" fill="white"/>
</svg>
