<svg width="36" height="36" viewBox="0 0 36 36" fill="none" xmlns="http://www.w3.org/2000/svg">
<path d="M19.0587 12.0005C18.2376 12.3855 17.5411 13.7791 17.3735 14.574C17.3053 14.9204 17.2961 15.2603 17.3158 15.6C17.2064 15.3628 17.1249 15.0903 17.1016 14.7292C17.092 14.5762 16.9939 14.4328 16.8585 14.374C16.7231 14.3152 16.5568 14.3437 16.4464 14.4447C14.9735 15.7881 14.069 17.8099 14.069 19.7814C14.069 21.9549 15.2649 23.3919 16.9656 24.3637C17.1102 24.4482 17.3056 24.4238 17.4271 24.3061C17.5486 24.1884 17.587 23.9865 17.5177 23.8292C17.4304 23.6288 17.3653 23.4375 17.3653 23.23C17.3653 22.5448 17.7771 21.8184 18.2882 21.4626C18.7997 21.8181 19.2112 22.5441 19.2112 23.23C19.2112 23.4356 19.1456 23.6288 19.0587 23.8292C18.9895 23.9865 19.0278 24.1884 19.1494 24.3061C19.2709 24.4238 19.4663 24.4482 19.6109 24.3637C21.3133 23.3923 22.5075 21.9564 22.5075 19.7814C22.5075 17.8987 21.6173 16.6546 20.8305 15.6C20.0437 14.5454 19.3866 13.7003 19.4749 12.4445C19.4916 12.2107 19.2826 11.9877 19.0587 12.0005ZM18.758 13.436C18.9787 14.486 19.6142 15.3122 20.2083 16.1087C20.9879 17.1536 21.7164 18.1654 21.7164 19.7814C21.7164 21.3169 21.071 22.3127 19.9858 23.1179C19.9448 22.0502 19.3484 21.0333 18.4572 20.5918C18.352 20.5398 18.2245 20.5398 18.1193 20.5918C17.2288 21.0336 16.6317 22.0504 16.5906 23.1179C15.506 22.3121 14.8601 21.3151 14.8601 19.7814C14.8601 18.3152 15.4644 16.7551 16.4588 15.5957C16.6911 16.3235 17.1579 16.8316 17.6825 17.1777C17.8131 17.2634 17.9924 17.2589 18.1189 17.1667C18.2454 17.0746 18.3116 16.9002 18.28 16.7423C18.12 15.9492 18.0309 15.337 18.1481 14.7422C18.2276 14.3391 18.4136 13.9176 18.758 13.436V13.436Z" fill="white"/>
<circle cx="18" cy="18" r="17.5" stroke="white"/>
</svg>
