<svg width="30" height="30" viewBox="0 0 30 30" fill="none" xmlns="http://www.w3.org/2000/svg">
<circle opacity="0.8" cx="14.9034" cy="14.9032" r="14.9032" transform="rotate(-180 14.9034 14.9032)" fill="#2A2A2A"/>
<mask id="path-2-inside-1" fill="white">
<path d="M19.1822 19.5161C19.0967 19.5161 19.0113 19.4835 18.946 19.4183L11.0979 11.5701C10.9674 11.4397 10.9674 11.2283 11.0979 11.0979C11.2283 10.9674 11.4399 10.9674 11.5701 11.0979L19.4182 18.9461C19.5488 19.0766 19.5488 19.288 19.4182 19.4183C19.3531 19.4835 19.2677 19.5161 19.1822 19.5161Z"/>
<path d="M11.3341 19.5161C11.2486 19.5161 11.1631 19.4835 11.0979 19.4183C10.9674 19.2878 10.9674 19.0765 11.0979 18.9461L18.946 11.0979C19.0765 10.9674 19.2879 10.9674 19.4182 11.0979C19.5488 11.2283 19.5488 11.4397 19.4182 11.5701L11.5701 19.4183C11.5051 19.4835 11.4196 19.5161 11.3341 19.5161Z"/>
</mask>
<path d="M19.1822 19.5161C19.0967 19.5161 19.0113 19.4835 18.946 19.4183L11.0979 11.5701C10.9674 11.4397 10.9674 11.2283 11.0979 11.0979C11.2283 10.9674 11.4399 10.9674 11.5701 11.0979L19.4182 18.9461C19.5488 19.0766 19.5488 19.288 19.4182 19.4183C19.3531 19.4835 19.2677 19.5161 19.1822 19.5161Z" fill="white"/>
<path d="M11.3341 19.5161C11.2486 19.5161 11.1631 19.4835 11.0979 19.4183C10.9674 19.2878 10.9674 19.0765 11.0979 18.9461L18.946 11.0979C19.0765 10.9674 19.2879 10.9674 19.4182 11.0979C19.5488 11.2283 19.5488 11.4397 19.4182 11.5701L11.5701 19.4183C11.5051 19.4835 11.4196 19.5161 11.3341 19.5161Z" fill="white"/>
<path d="M18.946 19.4183L18.2389 20.1254L18.2396 20.1262L18.946 19.4183ZM11.0979 11.5701L11.805 10.863L11.8046 10.8627L11.0979 11.5701ZM11.0979 11.0979L11.8046 11.8054L11.8054 11.8046L11.0979 11.0979ZM11.5701 11.0979L10.8623 11.8043L10.863 11.805L11.5701 11.0979ZM19.4182 18.9461L18.7111 19.6532L19.4182 18.9461ZM19.4182 19.4183L18.7115 18.7109L18.7111 18.7112L19.4182 19.4183ZM11.0979 19.4183L10.3908 20.1254L11.0979 19.4183ZM11.0979 18.9461L11.8046 19.6536L11.805 19.6532L11.0979 18.9461ZM18.946 11.0979L19.6531 11.805L18.946 11.0979ZM19.4182 11.0979L18.7108 11.8046L18.7115 11.8054L19.4182 11.0979ZM19.4182 11.5701L18.7115 10.8627L18.7111 10.863L19.4182 11.5701ZM11.5701 19.4183L10.863 18.7112L10.8623 18.712L11.5701 19.4183ZM19.1822 18.5161C19.3514 18.5161 19.5232 18.5816 19.6524 18.7105L18.2396 20.1262C18.4995 20.3855 18.842 20.5161 19.1822 20.5161V18.5161ZM19.6531 18.7112L11.805 10.863L10.3908 12.2772L18.2389 20.1254L19.6531 18.7112ZM11.8046 10.8627C12.0651 11.1229 12.0651 11.5451 11.8046 11.8054L10.3911 10.3904C9.86962 10.9114 9.86962 11.7566 10.3911 12.2776L11.8046 10.8627ZM11.8054 11.8046C11.5453 12.0649 11.1229 12.0654 10.8623 11.8043L12.2779 10.3915C11.7568 9.8693 10.9112 9.86982 10.3904 10.3911L11.8054 11.8046ZM10.863 11.805L18.7111 19.6532L20.1254 18.239L12.2772 10.3908L10.863 11.805ZM18.7111 19.6532C18.4513 19.3934 18.4508 18.9713 18.7115 18.7109L20.125 20.1258C20.6467 19.6046 20.6462 18.7598 20.1254 18.239L18.7111 19.6532ZM18.7111 18.7112C18.8409 18.5815 19.0131 18.5161 19.1822 18.5161V20.5161C19.5222 20.5161 19.8652 20.3856 20.1254 20.1254L18.7111 18.7112ZM11.3341 18.5161C11.5027 18.5161 11.6749 18.5812 11.805 18.7112L10.3908 20.1254C10.6512 20.3859 10.9944 20.5161 11.3341 20.5161V18.5161ZM11.805 18.7112C12.0648 18.971 12.0653 19.3932 11.8046 19.6536L10.3911 18.2386C9.86942 18.7598 9.86994 19.6046 10.3908 20.1254L11.805 18.7112ZM11.805 19.6532L19.6531 11.805L18.2389 10.3908L10.3908 18.239L11.805 19.6532ZM19.6531 11.805C19.3933 12.0648 18.9712 12.0653 18.7108 11.8046L20.1257 10.3911C19.6045 9.86942 18.7597 9.86994 18.2389 10.3908L19.6531 11.805ZM18.7115 11.8054C18.451 11.5451 18.451 11.1229 18.7115 10.8627L20.125 12.2776C20.6465 11.7566 20.6465 10.9114 20.125 10.3904L18.7115 11.8054ZM18.7111 10.863L10.863 18.7112L12.2772 20.1254L20.1254 12.2772L18.7111 10.863ZM10.8623 18.712C10.9929 18.5811 11.1656 18.5161 11.3341 18.5161V20.5161C11.6735 20.5161 12.0172 20.386 12.2779 20.1247L10.8623 18.712Z" fill="white" mask="url(#path-2-inside-1)"/>
</svg>
