<svg width="18" height="19" viewBox="0 0 18 19" fill="none" xmlns="http://www.w3.org/2000/svg">
<path d="M4.95208e-05 7.18645C0.00726958 9.11346 0.754754 10.928 2.10495 12.2957C3.90562 14.1197 6.54658 14.8449 8.9971 14.1883C9.9219 13.9405 10.7867 13.502 11.5378 12.9058L16.796 18.2321L18 17.0123L12.7417 11.6858C13.7205 10.4243 14.2501 8.87513 14.244 7.23972C14.2367 5.31271 13.4892 3.4982 12.1391 2.13046C10.3385 0.306556 7.69757 -0.418664 5.24707 0.237947C4.04722 0.559447 2.94768 1.20086 2.0672 2.0928C0.727058 3.45039 -0.00694421 5.25937 4.95208e-05 7.18645ZM5.69564 1.91211C7.55882 1.41289 9.56648 1.96398 10.9351 3.35034C11.9613 4.38982 12.5294 5.76892 12.5349 7.23346C12.5404 8.69799 11.9824 10.0729 10.9639 11.1046C10.2944 11.7827 9.45935 12.2701 8.54858 12.5141C6.68547 13.0134 4.67775 12.4622 3.30912 11.0759C2.28294 10.0364 1.71486 8.65748 1.70947 7.19287C1.70404 5.72826 2.26187 4.35345 3.28036 3.32165C3.9498 2.64356 4.78488 2.15615 5.69564 1.91211Z" fill="white"/>
</svg>
