<svg width="40" height="40" viewBox="0 0 40 40" fill="none" xmlns="http://www.w3.org/2000/svg">
<rect width="40" height="40" fill="#030303"/>
<path fill-rule="evenodd" clip-rule="evenodd" d="M15.609 17.7674C15.5797 17.3682 15.6561 16.9684 15.8302 16.6098C15.8832 16.4669 15.9569 16.333 16.0489 16.2125C16.213 15.9857 16.4323 15.8066 16.685 15.693C16.685 15.693 17.4361 15.6177 17.501 15.7209C17.8491 16.3383 18.1403 16.9874 18.3708 17.6599C18.4858 18.0997 17.8822 18.6017 17.8822 18.6017C17.8822 18.6017 17.4998 18.8009 17.8822 19.2942C18.1672 19.6623 18.652 20.3039 18.9432 20.5408C19.2508 20.798 19.578 21.0297 19.9218 21.2336C20.6329 21.6365 20.7653 21.5936 20.7653 21.5936C20.7653 21.5936 20.8965 21.6483 21.254 21.1504C21.4452 20.8861 21.6539 20.5758 21.8526 20.5132C22.0825 20.4413 23.9396 21.5311 23.8659 21.455C23.9958 21.589 23.8933 22.0184 23.8933 22.0184C23.8933 22.0184 23.9334 22.4988 23.226 23.0528C22.7599 23.4181 21.9888 23.5051 21.9888 23.5051C21.5033 23.4696 21.0261 23.3576 20.5741 23.1731C19.8205 22.8828 19.0244 22.6385 17.9909 21.6773C17.273 21.0111 16.6492 20.2461 16.1376 19.4043C15.594 18.4464 15.609 17.7674 15.609 17.7674ZM19.6631 28.0481C18.2221 28.0502 16.8053 27.6698 15.5515 26.9442L11 28.4359L12.4959 23.8941C11.5519 22.2786 11.1575 20.3893 11.3742 18.5208C11.5909 16.6523 12.4066 14.9096 13.694 13.5644C14.9814 12.2191 16.6682 11.3469 18.4915 11.0838C20.3148 10.8206 22.172 11.1813 23.7737 12.1096C25.3754 13.038 26.6314 14.4817 27.3461 16.2158C28.0607 17.9499 28.1938 19.8768 27.7246 21.6963C27.2553 23.5157 26.2101 25.1254 24.7519 26.2744C23.2937 27.4233 21.5044 28.047 19.6631 28.0481ZM19.6493 12.4517C18.3687 12.4468 17.1116 12.8029 16.0161 13.4808C14.9207 14.1586 14.0294 15.132 13.4403 16.2939C12.8511 17.4558 12.5869 18.7612 12.6767 20.0666C12.7666 21.3719 13.2069 22.6267 13.9494 23.693L13.2857 25.7489L13.2882 25.7509L13.0945 26.3307L14.2205 25.9891C14.2187 25.987 14.2166 25.9851 14.2143 25.9835L15.7589 25.4868C16.6633 26.1111 17.6985 26.5098 18.7811 26.6509C19.8637 26.792 20.9637 26.6716 21.9925 26.2994C23.0213 25.9271 23.9502 25.3133 24.7047 24.5075C25.4591 23.7016 26.018 22.7261 26.3364 21.6593C26.6548 20.5926 26.7238 19.4644 26.5378 18.3655C26.3519 17.2665 25.9162 16.2275 25.2657 15.3319C24.6153 14.4364 23.7683 13.7092 22.7929 13.209C21.8174 12.7088 20.7407 12.4494 19.6493 12.4517Z" fill="white"/>
</svg>
