<svg width="41" height="40" viewBox="0 0 41 40" fill="none" xmlns="http://www.w3.org/2000/svg">
<rect x="0.666656" width="40" height="40" fill="#030303"/>
<path fill-rule="evenodd" clip-rule="evenodd" d="M16.2758 17.7674C16.2465 17.3682 16.3229 16.9684 16.497 16.6098C16.55 16.4669 16.6237 16.333 16.7157 16.2125C16.8798 15.9857 17.0991 15.8066 17.3518 15.693C17.3518 15.693 18.1029 15.6177 18.1679 15.7209C18.5159 16.3383 18.8071 16.9874 19.0377 17.6599C19.1526 18.0997 18.549 18.6017 18.549 18.6017C18.549 18.6017 18.1666 18.8009 18.549 19.2942C18.834 19.6623 19.3188 20.3039 19.61 20.5408C19.9176 20.798 20.2449 21.0297 20.5886 21.2336C21.2997 21.6365 21.4321 21.5936 21.4321 21.5936C21.4321 21.5936 21.5633 21.6483 21.9208 21.1504C22.112 20.8861 22.3207 20.5758 22.5194 20.5132C22.7493 20.4413 24.6064 21.5311 24.5327 21.455C24.6626 21.589 24.5602 22.0184 24.5602 22.0184C24.5602 22.0184 24.6002 22.4988 23.8928 23.0528C23.4267 23.4181 22.6556 23.5051 22.6556 23.5051C22.1701 23.4696 21.6929 23.3576 21.2409 23.1731C20.4873 22.8828 19.6913 22.6385 18.6577 21.6773C17.9398 21.0111 17.316 20.2461 16.8044 19.4043C16.2608 18.4464 16.2758 17.7674 16.2758 17.7674ZM20.3299 28.0481C18.8889 28.0502 17.4721 27.6698 16.2183 26.9442L11.6668 28.4359L13.1627 23.8941C12.2187 22.2786 11.8243 20.3893 12.041 18.5208C12.2577 16.6523 13.0734 14.9096 14.3608 13.5644C15.6482 12.2191 17.335 11.3469 19.1583 11.0838C20.9816 10.8206 22.8389 11.1813 24.4405 12.1096C26.0422 13.038 27.2982 14.4817 28.0129 16.2158C28.7276 17.9499 28.8606 19.8768 28.3914 21.6963C27.9221 23.5157 26.8769 25.1254 25.4187 26.2744C23.9605 27.4233 22.1712 28.047 20.3299 28.0481ZM20.3161 12.4517C19.0355 12.4468 17.7784 12.8029 16.683 13.4808C15.5875 14.1586 14.6962 15.132 14.1071 16.2939C13.5179 17.4558 13.2537 18.7612 13.3436 20.0666C13.4334 21.3719 13.8737 22.6267 14.6162 23.693L13.9526 25.7489L13.9551 25.7509L13.7613 26.3307L14.8873 25.9891C14.8855 25.987 14.8834 25.9851 14.8811 25.9835L16.4258 25.4868C17.3301 26.1111 18.3653 26.5098 19.4479 26.6509C20.5305 26.792 21.6305 26.6716 22.6593 26.2994C23.6881 25.9271 24.617 25.3133 25.3715 24.5075C26.1259 23.7016 26.6848 22.7261 27.0032 21.6593C27.3216 20.5926 27.3906 19.4644 27.2046 18.3655C27.0187 17.2665 26.583 16.2275 25.9326 15.3319C25.2821 14.4364 24.4352 13.7092 23.4597 13.209C22.4842 12.7088 21.4075 12.4494 20.3161 12.4517Z" fill="white"/>
</svg>
